# This file uses centimeters as units for non-parametric coordinates.

mtllib CypressOakLeaf.mtl
g default
v -7.475580 -12.821500 -2.642820
v -5.988800 -4.958470 -1.278180
v -0.274047 -19.351601 -3.522770
v -0.053578 -6.483380 0.691455
v 0.000000 -0.000001 0.000000
v 5.862960 -5.580580 -1.741670
v 6.170420 -14.145200 -3.285290
vt 0.147419 0.662555
vt 0.519561 1.000000
vt 0.530954 0.335031
vt 0.836693 0.288378
vt 0.852581 0.730958
vt 0.224249 0.256230
vt 0.533722 0.000000
vn -0.495061 -0.285227 0.820707
vn 0.013222 -0.420687 0.907109
vn 0.047953 0.016005 0.998721
vn 0.434721 0.007111 0.900537
vn 0.047953 0.016005 0.998721
vn 0.428045 -0.251455 0.868071
vn 0.047953 0.016005 0.998721
vn 0.013222 -0.420687 0.907109
vn 0.428045 -0.251455 0.868071
vn -0.495061 -0.285227 0.820707
vn 0.047953 0.016005 0.998721
vn -0.369439 0.087019 0.925172
vn 0.434721 0.007111 0.900537
vn 0.033893 0.105711 0.993819
vn 0.047953 0.016005 0.998721
vn 0.047953 0.016005 0.998721
vn 0.033893 0.105711 0.993819
vn -0.369439 0.087019 0.925172
s off
g AmurCorkLeaf:Mesh
usemtl AmurCorkLeaf:lambert1SG
f 1/1/1 3/2/2 4/3/3
f 6/4/4 4/3/5 7/5/6
f 4/3/7 3/2/8 7/5/9
f 1/1/10 4/3/11 2/6/12
f 6/4/13 5/7/14 4/3/15
f 4/3/16 5/7/17 2/6/18
